<?xml version="1.0" encoding="utf-8"?>
<!-- Generator: Adobe Illustrator 23.0.3, SVG Export Plug-In . SVG Version: 6.00 Build 0)  -->
<svg version="1.1" id="Layer_1" xmlns="http://www.w3.org/2000/svg" x="0px"
     y="0px"
     viewBox="0 0 43.7 62.9" style="enable-background:new 0 0 43.7 62.9;" xml:space="preserve">
<style type="text/css">
	.st0{fill:#99CC00;}
	.st1{fill:#009900;}
</style>
  <title>icon</title>
  <desc>Tazebar Logo.</desc>
  <g id="Page-1">
	<g id="Dashboard-0---Menu" transform="translate(-1368.000000, -17.000000)">
		<g id="right" transform="translate(1339.000000, 0.000000)">
			<g id="icon">
				<g transform="translate(29.000000, 17.000000)">
				</g>
			</g>
		</g>
	</g>
</g>
  <g id="Group">
	<path id="Shape" class="st0" d="M28.3,20.9c-2,3.3-4.9,6.1-8.3,8.1C9.3,35.5,2.8,34,1.6,33.5C0.6,35.7,0.1,38,0,40.6
		c-0.5,11.8,9,21.8,21,22.3s22.2-8.8,22.7-20.6C44.2,32.4,37.6,23.7,28.3,20.9z M21.6,50.7c-5.2-0.2-9.2-4.5-9-9.6
		c0.2-5,4.6-9,9.7-8.8c5.2,0.2,9.2,4.5,9,9.6C31.1,46.9,26.9,50.9,21.6,50.7z"/>
    <path class="st1" d="M29.9,0c-4.1,6.3-11.3,8.2-18,12c-2.7,1.5-5.4,3.3-7.1,5.9c-3.4,5-3.3,13.5-2.1,13.8c1.1,0.3,7.2,1.4,17.5-5.3
		c4-2.6,7.2-6.3,8.9-10.6C31.2,10.6,30.5,5.7,29.9,0z M22.7,14.9c-1,1-2.3,1.8-3.4,2.5c-1.3,0.7-2.6,1.3-3.7,1.8
		c-2.6,1.1-4.7,2.2-6.7,4S5.2,27,3.8,29.4c0.7-2.6,2.1-5.2,4-7.1c1-1.1,2-2,3.3-2.8c1.1-0.8,2.4-1.4,3.7-2c2.6-1.1,5-2.1,7-3.8
		c2.1-1.5,3.7-3.6,5.2-6C26.2,10.5,24.8,13,22.7,14.9z"/>
</g>
</svg>
