<?xml version="1.0" encoding="utf-8"?>
<!-- Generator: Adobe Illustrator 23.0.3, SVG Export Plug-In . SVG Version: 6.00 Build 0)  -->
<svg version="1.1" id="Layer_1" xmlns="http://www.w3.org/2000/svg" x="0px"
     y="0px"
     viewBox="0 0 116.8 50.4" style="enable-background:new 0 0 116.8 50.4;" xml:space="preserve">
<style type="text/css">
	.st0{fill-rule:evenodd;clip-rule:evenodd;fill:#FFFFFF;}
	.st1{fill:#FFFFFF;}
</style>
  <title>logo 1 copy</title>
  <desc>Created with Sketch.</desc>
  <g>
	<path class="st0" d="M30.3,11.7c-0.6-0.1-5.1,0.1-5.8,0.1v7.4c0.6,0,5.2,0.3,5.8,0.4c2.4,0.8,4,3,4,5.5c0,1.7-0.7,3.2-1.9,4.3
		c-1.2,1.1-2.9,1.7-4.5,1.5c-2.9-0.3-5.3-2.9-5.3-6V0.1L14.6,0v25.2c0,3.7,1.5,7.3,4.3,9.9c2.6,2.4,6,3.7,9.6,3.7h0.9
		c7.2-0.4,12.8-6.4,12.8-13.6C42.2,18.3,36.9,12.6,30.3,11.7z M4,25.2c0,2.5-1.6,4.7-4,5.5v7.9c6.7-0.9,11.8-6.7,11.8-13.5V11.7H4
		L4,25.2z"/>
    <ellipse class="st1" cx="28.4" cy="46.5" rx="3.9" ry="3.9"/>
    <path class="st1" d="M62.2,11.8c-1.2,2.1-2.9,4-5,5.3c-6.6,4.4-10.7,3.6-11.4,3.3c-0.5,1.4-0.8,3-0.8,4.5c0,7.5,6.1,13.6,13.7,13.6
		s13.7-6.1,13.7-13.6C72.4,18.7,68.1,13.4,62.2,11.8z M58.8,30.8c-3.2,0-5.8-2.6-5.9-5.8c0,0,0,0,0,0c0-3.2,2.7-5.8,5.9-5.8
		c3.2,0,5.8,2.6,5.8,5.8C64.6,28.3,62,30.9,58.8,30.8C58.8,30.9,58.8,30.9,58.8,30.8L58.8,30.8z"/>
    <path class="st1" d="M62.7,0C60.3,3.7,56,4.9,52.1,7.1c-1.6,0.9-3.2,2-4.2,3.5c-2,3-1.9,8-1.2,8.2s4.2,0.8,10.3-3.1
		c2.3-1.6,4.3-3.7,5.3-6.3C63.4,6.3,63,3.4,62.7,0z M58.4,8.8c-0.6,0.6-1.3,1.1-2,1.5c-0.7,0.4-1.5,0.7-2.2,1.1
		c-1.5,0.6-2.7,1.3-3.9,2.4c-1.2,1.1-2.2,2.3-3,3.6c0.7-2.4,2.2-4.5,4.3-5.9c0.7-0.5,1.4-0.9,2.2-1.2c1.5-0.7,2.9-1.2,4.1-2.2
		C59.1,7.2,60,6,60.9,4.6C60.5,6.2,59.7,7.7,58.4,8.8z"/>
    <path class="st0" d="M78.6,26.2c0,2.3-1.7,4.3-4,4.6v7.7c6.6-0.3,11.8-5.8,11.8-12.4V11.6h-7.8V26.2z M104.9,11.7
		c-0.6-0.1-5.2,0-5.8,0v7.5c0.6,0,5.3,0.2,5.8,0.3c2.4,0.8,4,3,4,5.5c0,1.6-0.7,3.2-1.9,4.3c-1.2,1.1-2.9,1.7-4.5,1.5
		c-2.9-0.3-5.3-2.9-5.3-6V0h-7.8v25.1c0,3.8,1.5,7.2,4.3,9.8c2.6,2.5,6,3.7,9.5,3.7h0.9c7.1-0.4,12.8-6.3,12.8-13.5
		C116.8,18.3,111.7,12.6,104.9,11.7L104.9,11.7z"/>
    <ellipse class="st1" cx="82.4" cy="3.9" rx="3.9" ry="3.8"/>
    <path class="st0" d="M103.2,7.8c1.2,0,2.3-0.5,3-1.4c0.7,0.9,1.8,1.4,3,1.4c2.1,0,3.9-1.7,3.9-3.8c0-2.1-1.8-3.9-3.9-3.9
		c-1.2,0-2.3,0.5-3,1.4c-0.7-0.9-1.8-1.4-3-1.4c-2.1,0-3.9,1.7-3.9,3.8C99.3,6,101.1,7.8,103.2,7.8z"/>
</g>
</svg>
