<?xml version="1.0" encoding="utf-8"?>
<!-- Generator: Adobe Illustrator 23.0.3, SVG Export Plug-In . SVG Version: 6.00 Build 0)  -->
<svg version="1.1" id="Layer_1" xmlns="http://www.w3.org/2000/svg" x="0px"
     y="0px"
     viewBox="0 0 116.9 50.4" style="enable-background:new 0 0 116.9 50.4;" xml:space="preserve">
<style type="text/css">
	.st0{fill-rule:evenodd;clip-rule:evenodd;fill:#009900;}
	.st1{fill:#009900;}
	.st2{fill:#99CC00;}
	.st3{fill-rule:evenodd;clip-rule:evenodd;fill:#99CC00;}
</style>
  <title>logo 1 copy</title>
  <desc>Created with Sketch.</desc>
  <path class="st0" d="M30.3,11.7c-0.6-0.1-5.1,0.1-5.8,0.1v7.4c0.6,0,5.2,0.3,5.8,0.4c2.4,0.8,4,3,4,5.5c0,1.7-0.7,3.2-1.9,4.3
	c-1.2,1.1-2.9,1.7-4.5,1.5c-2.9-0.3-5.3-2.9-5.3-6v-25L14.7,0v25.2c0,3.7,1.5,7.3,4.3,9.9c2.6,2.4,6.1,3.7,9.6,3.7h0.9
	c7.2-0.4,12.8-6.4,12.8-13.6C42.2,18.3,37,12.6,30.3,11.7z M4,25.2c0,2.5-1.6,4.7-4,5.5v7.9c6.8-0.9,11.8-6.7,11.8-13.5V11.7H4
	L4,25.2z"/>
  <ellipse class="st1" cx="28.4" cy="46.5" rx="3.9" ry="3.9"/>
  <path class="st2" d="M62.3,11.8c-1.2,2.1-2.9,4-5,5.3c-6.6,4.4-10.7,3.6-11.5,3.3c-0.5,1.4-0.8,3-0.8,4.5c0,7.5,6.1,13.6,13.7,13.6
	S72.4,32.4,72.4,25C72.5,18.7,68.1,13.4,62.3,11.8z M58.8,30.9c-3.2,0-5.8-2.6-5.9-5.8c0,0,0,0,0,0c0-3.2,2.7-5.8,5.9-5.8
	c3.2,0,5.8,2.6,5.8,5.8S62,30.9,58.8,30.9C58.8,30.9,58.8,30.9,58.8,30.9L58.8,30.9z"/>
  <path class="st1" d="M62.8,0c-2.4,3.7-6.7,4.9-10.6,7.1c-1.6,0.9-3.2,2-4.2,3.5c-2,3-1.9,8-1.2,8.2S51,19.6,57,15.7
	c2.3-1.6,4.3-3.7,5.3-6.3C63.5,6.3,63.1,3.4,62.8,0z M58.5,8.9c-0.6,0.6-1.3,1.1-2,1.5c-0.7,0.4-1.5,0.7-2.2,1.1
	c-1.5,0.6-2.7,1.3-3.9,2.4c-1.2,1.1-2.2,2.3-3,3.6c0.7-2.4,2.2-4.5,4.3-5.9c0.7-0.5,1.4-0.9,2.2-1.2c1.5-0.7,2.9-1.2,4.1-2.2
	C59.1,7.2,60.1,6,61,4.6C60.6,6.2,59.7,7.7,58.5,8.9z"/>
  <path class="st3" d="M78.6,26.3c0,2.3-1.7,4.3-4,4.6v7.7c6.6-0.3,11.8-5.8,11.8-12.4V11.6h-7.8V26.3z M105,11.7
	c-0.6-0.1-5.2,0-5.8,0v7.5c0.6,0,5.3,0.2,5.8,0.3c2.4,0.8,4,3,4,5.5c0,1.6-0.7,3.2-1.9,4.3c-1.2,1.1-2.9,1.7-4.5,1.5
	c-2.9-0.3-5.3-2.9-5.3-6V0h-7.8v25.1c0,3.8,1.5,7.2,4.3,9.8c2.6,2.5,6,3.7,9.5,3.7h0.9c7.1-0.4,12.8-6.3,12.8-13.5
	C116.8,18.3,111.8,12.6,105,11.7L105,11.7z"/>
  <ellipse class="st2" cx="82.5" cy="3.9" rx="3.9" ry="3.8"/>
  <path class="st3" d="M103.3,7.8c1.2,0,2.3-0.5,3-1.4c0.7,0.9,1.8,1.4,3,1.4c2.1,0,3.9-1.7,3.9-3.8c0-2.1-1.8-3.9-3.9-3.9
	c-1.2,0-2.3,0.5-3,1.4c-0.7-0.9-1.8-1.4-3-1.4c-2.1,0-3.9,1.7-3.9,3.8C99.4,6,101.1,7.8,103.3,7.8z"/>
</svg>
